<svg width="50" height="50" viewBox="0 0 50 50" fill="none" xmlns="http://www.w3.org/2000/svg">
<g clip-path="url(#clip0_1_8)">
<path d="M4.6875 25C4.6875 19.6128 6.82756 14.4462 10.6369 10.6369C14.4462 6.82756 19.6128 4.6875 25 4.6875C30.3872 4.6875 35.5538 6.82756 39.3631 10.6369C43.1724 14.4462 45.3125 19.6128 45.3125 25C45.3125 30.3872 43.1724 35.5538 39.3631 39.3631C35.5538 43.1724 30.3872 45.3125 25 45.3125C19.6128 45.3125 14.4462 43.1724 10.6369 39.3631C6.82756 35.5538 4.6875 30.3872 4.6875 25ZM50 25C50 18.3696 47.3661 12.0107 42.6777 7.32233C37.9893 2.63392 31.6304 0 25 0C18.3696 0 12.0107 2.63392 7.32233 7.32233C2.63392 12.0107 0 18.3696 0 25C0 31.6304 2.63392 37.9893 7.32233 42.6777C12.0107 47.3661 18.3696 50 25 50C31.6304 50 37.9893 47.3661 42.6777 42.6777C47.3661 37.9893 50 31.6304 50 25ZM21.2305 36.8066C21.6406 37.2461 22.2168 37.5 22.8223 37.5C24.0234 37.5 25 36.5234 25 35.3223V29.6875H34.375C36.1035 29.6875 37.5 28.291 37.5 26.5625V23.4375C37.5 21.709 36.1035 20.3125 34.375 20.3125H25V14.6777C25 13.4766 24.0234 12.5 22.8223 12.5C22.2168 12.5 21.6406 12.7539 21.2305 13.1934L11.4746 23.6523C11.1328 24.0234 10.9375 24.502 10.9375 25C10.9375 25.498 11.1328 25.9863 11.4746 26.3477L21.2305 36.8066Z" fill="white"/>
</g>
<defs>
<clipPath id="clip0_1_8">
<rect width="50" height="50" fill="white"/>
</clipPath>
</defs>
</svg>
