<svg width="44" height="44" viewBox="0 0 44 44" fill="none" xmlns="http://www.w3.org/2000/svg">
<g id="&#240;&#159;&#166;&#134; icon &#34;facebook&#34;">
<path id="Vector" d="M44 31.218C44 39.226 39.226 44 31.218 44H28.6C27.39 44 26.4 43.01 26.4 41.8V29.106C26.4 28.512 26.884 28.006 27.478 28.006L31.35 27.94C31.658 27.918 31.922 27.698 31.988 27.39L32.758 23.188C32.824 22.792 32.516 22.418 32.098 22.418L27.412 22.484C26.796 22.484 26.312 22 26.29 21.406L26.202 16.016C26.202 15.664 26.488 15.356 26.862 15.356L32.142 15.268C32.516 15.268 32.802 14.982 32.802 14.608L32.714 9.32798C32.714 8.95398 32.428 8.668 32.054 8.668L26.114 8.75602C22.462 8.82202 19.558 11.814 19.624 15.466L19.734 21.516C19.756 22.132 19.272 22.616 18.656 22.638L16.016 22.682C15.642 22.682 15.356 22.968 15.356 23.342L15.422 27.522C15.422 27.896 15.708 28.182 16.082 28.182L18.722 28.138C19.338 28.138 19.822 28.622 19.844 29.216L20.042 41.756C20.064 42.988 19.074 44 17.842 44H12.782C4.774 44 0 39.226 0 31.196V12.782C0 4.774 4.774 0 12.782 0H31.218C39.226 0 44 4.774 44 12.782V31.218Z" fill="white"/>
</g>
</svg>
