<svg width="43" height="42" viewBox="0 0 43 42" fill="none" xmlns="http://www.w3.org/2000/svg">
<g id="&#240;&#159;&#166;&#134; icon &#34;star 1&#34;">
<path id="Vector" d="M24.3506 7.31069L27.2543 12.9886C27.6502 13.779 28.7061 14.5371 29.597 14.6823L34.8599 15.5372C38.2256 16.0857 39.0175 18.4729 36.5922 20.828L32.5007 24.8283C31.8078 25.5058 31.4283 26.8124 31.6428 27.7479L32.8142 32.7C33.7381 36.6197 31.6098 38.136 28.0627 36.0874L23.1298 33.2323C22.2389 32.7161 20.7705 32.7161 19.8631 33.2323L14.9301 36.0874C11.3995 38.136 9.25476 36.6036 10.1787 32.7L11.35 27.7479C11.5645 26.8124 11.185 25.5058 10.4921 24.8283L6.40058 20.828C3.99185 18.4729 4.76726 16.0857 8.13289 15.5372L13.3958 14.6823C14.2702 14.5371 15.3261 13.779 15.722 12.9886L18.6258 7.31069C20.2096 4.22977 22.7833 4.22977 24.3506 7.31069Z" fill="#D2BA40" stroke="#D2BA40" stroke-width="9.22115" stroke-linecap="round" stroke-linejoin="round"/>
</g>
</svg>
