<svg width="43" height="44" viewBox="0 0 43 44" fill="none" xmlns="http://www.w3.org/2000/svg">
<g id="&#240;&#159;&#166;&#134; icon &#34;google 1&#34;">
<path id="Vector" d="M42.8484 19.8892C42.7388 18.7709 41.7959 17.9376 40.6775 17.9376H24.1214C22.9153 17.9376 21.9286 18.9244 21.9286 20.1305V23.8802C21.9286 25.0863 22.9153 26.0731 24.1214 26.0731H34.0112C33.77 28.0905 32.4543 31.1386 29.5378 33.178C27.6738 34.4717 25.1959 35.3708 21.9286 35.3708C21.7751 35.3708 21.6435 35.3708 21.49 35.3489C15.8982 35.1735 11.1617 31.4237 9.45122 26.2705C8.99072 24.889 8.72758 23.4417 8.72758 21.9286C8.72758 20.4155 8.99072 18.9463 9.4293 17.5867C9.56087 17.192 9.71437 16.7973 9.8898 16.4026C11.9072 11.8634 16.3149 8.66179 21.49 8.50829C21.6216 8.48637 21.7751 8.48637 21.9286 8.48637C25.0643 8.48637 27.4107 9.51699 29.0553 10.6573C29.9106 11.2493 31.0508 11.1178 31.7964 10.3941L34.8445 7.41187C35.8093 6.46894 35.7216 4.86813 34.6252 4.0787C31.1386 1.51305 26.8844 0 21.9286 0C21.7751 0 21.6435 2.1938e-05 21.49 0.0219505C13.0914 0.175451 5.87686 5.0436 2.34636 12.0827C0.855216 15.065 0 18.3981 0 21.9286C0 25.4591 0.855216 28.7922 2.34636 31.7745H2.36829C5.89879 38.8136 13.1133 43.6818 21.49 43.8353C21.6435 43.8572 21.7751 43.8572 21.9286 43.8572C27.8493 43.8572 32.8271 41.9055 36.4453 38.5505C40.5898 34.713 42.98 29.0992 42.98 22.411C42.98 21.4681 42.9361 20.6567 42.8484 19.8892Z" fill="white"/>
</g>
</svg>
