<svg width="67" height="67" viewBox="0 0 67 67" fill="none" xmlns="http://www.w3.org/2000/svg">
<g id="&#240;&#159;&#166;&#134; icon &#34;profile circle&#34;">
<g id="Group">
<path id="Vector" d="M67 33.5C67 15.0415 51.9585 0 33.5 0C15.0415 0 0 15.0415 0 33.5C0 43.215 4.1875 51.9585 10.8205 58.089C10.8205 58.1225 10.8205 58.1225 10.787 58.156C11.122 58.491 11.524 58.759 11.859 59.0605C12.06 59.228 12.2275 59.3955 12.4285 59.5295C13.0315 60.032 13.7015 60.501 14.338 60.97C14.5725 61.1375 14.7735 61.2715 15.008 61.439C15.6445 61.8745 16.3145 62.2765 17.018 62.645C17.2525 62.779 17.5205 62.9465 17.755 63.0805C18.425 63.449 19.1285 63.784 19.8655 64.0855C20.1335 64.2195 20.4015 64.3535 20.6695 64.454C21.4065 64.7555 22.1435 65.0235 22.8805 65.258C23.1485 65.3585 23.4165 65.459 23.6845 65.526C24.4885 65.7605 25.2925 65.9615 26.0965 66.1625C26.331 66.2295 26.5655 66.2965 26.8335 66.33C27.7715 66.531 28.7095 66.665 29.681 66.7655C29.815 66.7655 29.949 66.799 30.083 66.8325C31.222 66.933 32.361 67 33.5 67C34.639 67 35.778 66.933 36.8835 66.8325C37.0175 66.8325 37.1515 66.799 37.2855 66.7655C38.257 66.665 39.195 66.531 40.133 66.33C40.3675 66.2965 40.602 66.196 40.87 66.1625C41.674 65.9615 42.5115 65.794 43.282 65.526C43.55 65.4255 43.818 65.325 44.086 65.258C44.823 64.99 45.5935 64.7555 46.297 64.454C46.565 64.3535 46.833 64.2195 47.101 64.0855C47.8045 63.784 48.508 63.449 49.2115 63.0805C49.4795 62.9465 49.714 62.779 49.9485 62.645C50.6185 62.243 51.2885 61.8745 51.9585 61.439C52.193 61.305 52.394 61.1375 52.6285 60.97C53.2985 60.501 53.935 60.032 54.538 59.5295C54.739 59.362 54.9065 59.1945 55.1075 59.0605C55.476 58.759 55.8445 58.4575 56.1795 58.156C56.1795 58.1225 56.1795 58.1225 56.146 58.089C62.8125 51.9585 67 43.215 67 33.5ZM50.049 50.1495C40.9705 44.0525 26.0965 44.0525 16.951 50.1495C15.477 51.121 14.271 52.26 13.266 53.4995C8.174 48.3405 5.025 41.272 5.025 33.5C5.025 17.7885 17.7885 5.025 33.5 5.025C49.2115 5.025 61.975 17.7885 61.975 33.5C61.975 41.272 58.826 48.3405 53.734 53.4995C52.7625 52.26 51.523 51.121 50.049 50.1495Z" fill="#CFE2FA"/>
<path id="Vector_2" d="M33.5 16.5146C26.5655 16.5146 20.9375 22.1426 20.9375 29.0772C20.9375 35.8777 26.264 41.4052 33.3325 41.6062H33.634H33.8685H33.9355C40.7025 41.3717 46.029 35.8777 46.0625 29.0772C46.0625 22.1426 40.4345 16.5146 33.5 16.5146Z" fill="#CFE2FA"/>
</g>
</g>
</svg>
