<svg width="55" height="55" viewBox="0 0 55 55" fill="none" xmlns="http://www.w3.org/2000/svg">
<g clip-path="url(#clip0_1_4)">
<path d="M27.5 53.5C41.8594 53.5 53.5 41.8594 53.5 27.5C53.5 13.1406 41.8594 1.5 27.5 1.5C13.1406 1.5 1.5 13.1406 1.5 27.5C1.5 41.8594 13.1406 53.5 27.5 53.5Z" stroke="#D9D9D9" stroke-width="3"/>
<path d="M14 35V23.3756C14 21.9581 14.6017 20.6072 15.6554 19.659L24.1554 12.0098C26.0568 10.2987 28.9432 10.2987 30.8446 12.0098L39.3446 19.659C40.3983 20.6072 41 21.9581 41 23.3756V35C41 37.7614 38.7614 40 36 40H19C16.2386 40 14 37.7614 14 35Z" stroke="#D9D9D9" stroke-width="3"/>
<path d="M32 24.5H23C22.1716 24.5 21.5 25.1716 21.5 26V32C21.5 32.8284 22.1716 33.5 23 33.5H32C32.8284 33.5 33.5 32.8284 33.5 32V26C33.5 25.1716 32.8284 24.5 32 24.5Z" stroke="#D9D9D9" stroke-width="3"/>
</g>
<defs>
<clipPath id="clip0_1_4">
<rect width="55" height="55" fill="white"/>
</clipPath>
</defs>
</svg>
